# xmcd
#
# Track frame offsets: 
#        150
#        12700
#        30592
#        44220
#        69190
#        81090
#        93505
#        108350
#        121255
#        150387
#        160185
#        173710
#        185347
#
# Disc length: 2709 seconds
#
# Revision: 2
# Processed by: cddbd v1.5.2PL0 Copyright (c) Steve Scherf et al.
# Submitted via: ExactAudioCopy v0.99pb5
#
DISCID=9e0a930d
DTITLE=Kenny "Blue" Ray - Fired Up!
DYEAR=1994
DGENRE=Blues
TTITLE0=Squeezin'
TTITLE1=Everythings Gonna Be Alright
TTITLE2=Fired Up!
TTITLE3=Found Me A New Love
TTITLE4=Just Pickin'
TTITLE5=Ridin' In The Moonlight
TTITLE6=Little Voice
TTITLE7=Tele Talk
TTITLE8=Crib Theme
TTITLE9=Honey Bee
TTITLE10=Where's My Cadillac?
TTITLE11=Blues For Albert King
TTITLE12=The Bushmaster
EXTD=
EXTT0=
EXTT1=
EXTT2=
EXTT3=
EXTT4=
EXTT5=
EXTT6=
EXTT7=
EXTT8=
EXTT9=
EXTT10=
EXTT11=
EXTT12=
PLAYORDER=
